<?xml version="1.0" encoding="UTF-8" standalone="no"?>
<svg width="178px" height="44px" viewBox="0 0 178 44" version="1.1" xmlns="http://www.w3.org/2000/svg" xmlns:xlink="http://www.w3.org/1999/xlink" xmlns:sketch="http://www.bohemiancoding.com/sketch/ns">
    <!-- Generator: Sketch 3.2.2 (9983) - http://www.bohemiancoding.com/sketch -->
    <title>HuWhite</title>
    <desc>Created with Sketch.</desc>
    <defs></defs>
    <g id="Page-1" stroke="none" stroke-width="1" fill="none" fill-rule="evenodd" sketch:type="MSPage">
        <g id="Artboard-1" sketch:type="MSArtboardGroup" transform="translate(-49.000000, -80.000000)" fill="#FFFFFF">
            <g id="HuWhite" sketch:type="MSLayerGroup" transform="translate(49.000000, 79.000000)">
                <g id="Group-6" transform="translate(0.000000, 2.000000)" sketch:type="MSShapeGroup">
                    <path d="M15.703,42.5 L15.703,24.648 L7.164,24.648 L7.164,42.5 L0,42.5 L0,0.705 L7.164,0.705 L7.164,18.08 L15.703,18.08 L15.703,0.705 L22.867,0.705 L22.867,42.5 L15.703,42.5" id="Fill-1"></path>
                    <path d="M47.725,33.865 C47.725,39.18 43.904,43 38.59,43 L35.963,43 C30.648,43 26.827,39.18 26.827,33.865 L26.827,13.445 L33.933,13.445 L33.933,33.328 C33.933,35.299 35.008,36.312 36.918,36.312 L37.574,36.312 C39.545,36.312 40.561,35.238 40.561,33.328 L40.561,13.445 L47.725,13.445 L47.725,33.865" id="Fill-3"></path>
                    <path d="M59.1,36.59 L63.996,36.59 C66.025,36.59 67.16,35.455 67.16,33.426 L67.16,27.215 C67.16,25.185 66.025,24.051 63.996,24.051 L59.1,24.051 L59.1,36.59 L59.1,36.59 Z M59.1,18.199 L63.279,18.199 C65.309,18.199 66.443,17.064 66.443,15.035 L66.443,9.841 C66.443,7.811 65.309,6.676 63.279,6.676 L59.1,6.676 L59.1,18.199 L59.1,18.199 Z M64.652,0.705 C70.443,0.705 73.608,3.811 73.608,9.662 L73.608,14.916 C73.608,19.215 70.861,20.707 68.414,21.066 C70.922,21.244 74.325,22.738 74.325,26.559 L74.325,33.545 C74.325,39.396 71.221,42.5 65.369,42.5 L51.935,42.5 L51.935,0.705 L64.652,0.705 L64.652,0.705 Z" id="Fill-4"></path>
                    <path d="M86.18,19.953 C85.344,19.953 84.269,20.85 84.269,21.984 L84.269,34.344 C84.269,35.955 85.283,36.434 86.717,36.434 L89.045,36.434 C90.717,36.434 91.254,35.896 91.314,34.344 L91.314,21.984 C91.314,20.85 90.239,19.953 89.344,19.953 L86.18,19.953 L86.18,19.953 Z M89.344,13.385 C94.299,13.385 98.479,17.027 98.419,21.984 L98.419,34.344 C98.419,40.074 94.419,43 89.045,43 L86.717,43 C81.045,43 77.104,39.777 77.104,34.344 L77.104,21.984 C77.104,17.027 81.283,13.385 86.18,13.385 L89.344,13.385 L89.344,13.385 Z" id="Fill-5"></path>
                </g>
                <path d="M154.944,21.514 C153.394,21.514 152.558,22.17 152.558,23.723 L152.558,36.021 C152.558,37.156 153.513,37.934 154.407,37.934 L158.827,37.934 L158.827,21.514 L154.944,21.514 L154.944,21.514 Z M153.632,44.5 C148.677,44.5 145.392,40.918 145.392,35.963 L145.392,23.363 C145.392,17.633 148.735,14.945 154.349,14.945 L158.827,14.945 L158.827,2.705 L165.991,2.705 L165.991,44.5 L153.632,44.5 L153.632,44.5 Z" id="Fill-7" sketch:type="MSShapeGroup"></path>
                <path d="M120.146,41.654 C120.193,41.758 120.256,41.852 120.314,41.949 C120.256,41.852 120.193,41.758 120.146,41.654" id="Fill-8" sketch:type="MSShapeGroup"></path>
                <path d="M120.432,42.154 C120.508,42.264 120.6,42.363 120.691,42.465 C120.6,42.363 120.508,42.264 120.432,42.154" id="Fill-9" sketch:type="MSShapeGroup"></path>
                <path d="M120.807,42.602 C120.91,42.707 121.027,42.805 121.146,42.9 C121.027,42.805 120.91,42.707 120.807,42.602" id="Fill-10" sketch:type="MSShapeGroup"></path>
                <path d="M121.258,42.996 C121.387,43.096 121.527,43.184 121.67,43.271 C121.527,43.184 121.387,43.096 121.258,42.996" id="Fill-11" sketch:type="MSShapeGroup"></path>
                <path d="M121.771,43.342 C121.916,43.426 122.07,43.502 122.225,43.576 C122.07,43.502 121.916,43.426 121.771,43.342" id="Fill-12" sketch:type="MSShapeGroup"></path>
                <path d="M122.34,43.637 C122.498,43.711 122.664,43.775 122.83,43.838 C122.664,43.775 122.498,43.711 122.34,43.637" id="Fill-13" sketch:type="MSShapeGroup"></path>
                <path d="M122.947,43.887 C123.129,43.953 123.316,44.01 123.504,44.066 C123.316,44.01 123.129,43.953 122.947,43.887" id="Fill-14" sketch:type="MSShapeGroup"></path>
                <path d="M116.542,36.367 L116.542,37.92 L114.61,37.92 C114.507,37.926 114.405,37.934 114.298,37.934 L111.491,37.934 C109.88,37.934 108.745,37.574 108.745,36.082 L108.745,34.35 C108.745,33.047 109.427,32.473 110.433,32.348 C110.581,32.33 110.733,32.32 110.894,32.32 L116.567,32.295 L116.567,36.082 C116.567,36.186 116.552,36.273 116.542,36.367 L116.542,36.367 Z M123.704,44.09 L123.704,37.187 L123.685,37.086 L123.685,22.416 C123.259,18.244 119.853,15.369 115.718,14.945 C115.368,14.908 115.015,14.885 114.655,14.885 L112.028,14.885 C110.786,14.885 109.593,15.076 108.501,15.443 C107.38,15.785 106.419,16.303 105.64,17.006 C103.954,18.396 102.893,20.42 102.893,22.945 L102.893,24.738 L109.521,24.738 L109.521,23.363 C109.521,22.23 110.417,21.453 111.312,21.453 L114.835,21.453 C114.964,21.453 115.095,21.476 115.224,21.514 C115.927,21.709 116.567,22.406 116.567,23.363 L116.567,24.857 C116.446,26.289 115.491,26.828 113.999,26.828 L110.597,26.828 L110.433,26.832 C107.298,26.859 104.843,27.631 103.268,29.158 C101.982,30.404 101.281,32.15 101.281,34.41 L101.281,36.021 C101.281,41.754 105.581,44.5 111.192,44.5 L123.72,44.5 L123.72,44.094 L123.704,44.09 L123.704,44.09 Z" id="Fill-15" sketch:type="MSShapeGroup"></path>
                <path d="M138.005,15.945 C136.848,15.945 135.714,16.473 134.647,17.318 L134.647,15.297 L127.833,15.297 L127.87,44.615 L135.034,44.615 L135.034,25.658 C135.034,23.74 137.05,22.66 139.021,22.66 L139.677,22.66 C139.827,22.66 141.964,22.678 142.104,22.689 L143.104,15.945 L138.005,15.945" id="Fill-16" sketch:type="MSShapeGroup"></path>
                <g id="Group-18" transform="translate(168.000000, 0.000000)" font-size="6.2303" font-family=".Lucida Grande UI" sketch:type="MSTextLayer" font-weight="normal">
                    <text id="T">
                        <tspan x="0.947" y="6.15206152">T</tspan>
                    </text>
                </g>
                <text id="M" sketch:type="MSTextLayer" font-family=".Lucida Grande UI" font-size="6.2303" font-weight="normal">
                    <tspan x="172.4363" y="6.15206152">M</tspan>
                </text>
            </g>
        </g>
    </g>
</svg>